# xmcd CD database file
#
# Track frame offsets:
#	150
#	17585
#	41135
#	66082
#	87392
#	106835
#	121280
#	143567
#	162022
#
# Disc length: 2414 seconds
#
# Revision: 7
# Processed by: cddbd v1.5.2PL0 Copyright (c) Steve Scherf et al.
# Submitted via: CDex 2.00
#
DISCID=6c096c09
DTITLE=Ry Cooder - 1970-1987
DYEAR=2013
DGENRE=Blues
TTITLE0=Little Sister
TTITLE1=Go Home, Girl
TTITLE2=The Very Thing That Makes You Rich (Makes Me Poor)
TTITLE3=I Think It's Going To Work Out Fine
TTITLE4=Down In Hollywood
TTITLE5=Look At Granny Run Run
TTITLE6=Trouble, You Can't Fool Me
TTITLE7=Don't Mess Up A Good Thing
TTITLE8=I Can't Win
EXTD=YEAR: 2013
EXTT0=
EXTT1=
EXTT2=
EXTT3=
EXTT4=
EXTT5=
EXTT6=
EXTT7=
EXTT8=
PLAYORDER=
